<svg xmlns="http://www.w3.org/2000/svg" version="1.1" xmlns:xlink="http://www.w3.org/1999/xlink" xmlns:svgjs="http://svgjs.dev/svgjs" width="1440" height="560" preserveAspectRatio="none" viewBox="0 0 1440 560"><g clip-path="url(&quot;#SvgjsClipPath1006&quot;)" fill="none"><path d="M1142.79 101.32C1155.32 100.92 1167.59 98.05 1177.15 89.94 1187.6 81.08 1196.87 69.28 1196.73 55.58 1196.59 41.96 1186.33 31.3 1176.45 21.92 1166.91 12.87 1155.91 5.32 1142.79 4.37 1128.68 3.34 1114.4 7.21 1103.86 16.65 1092.77 26.59 1085.19 40.7 1085.65 55.58 1086.1 70.12 1094.82 83.1 1106.18 92.19 1116.39 100.36 1129.72 101.74 1142.79 101.32" fill="#ff9500" stroke="none"></path><path d="M1130.79 110.32C1143.32 109.92 1155.59 107.05 1165.15 98.94 1175.6 90.08 1184.87 78.28 1184.73 64.58 1184.59 50.96 1174.33 40.3 1164.45 30.92 1154.91 21.87 1143.91 14.32 1130.79 13.37 1116.68 12.34 1102.4 16.21 1091.86 25.65 1080.77 35.59 1073.19 49.7 1073.65 64.58 1074.1 79.12 1082.82 92.1 1094.18 101.19 1104.39 109.36 1117.72 110.74 1130.79 110.32" fill="none" stroke-width="2" stroke="#b36800"></path><path d="M230.73 582.44C253.95 582.39 276.14 571.42 291.36 553.89 305.65 537.43 309.21 515.03 308.15 493.26 307.15 472.7 299.09 453.91 285.74 438.25 270.98 420.94 253.45 403.56 230.73 402.43 207.27 401.26 186.89 416.21 169.96 432.49 152.6 449.18 136.31 469.18 136.28 493.26 136.25 517.35 152.31 537.62 169.83 554.16 186.75 570.14 207.46 582.49 230.73 582.44" fill="#ff9500" stroke="none"></path><path d="M217.73 591.44C240.95 591.39 263.14 580.42 278.36 562.89 292.65 546.43 296.21 524.03 295.15 502.26 294.15 481.7 286.09 462.91 272.74 447.25 257.98 429.94 240.45 412.56 217.73 411.43 194.27 410.26 173.89 425.21 156.96 441.49 139.6 458.18 123.31 478.18 123.28 502.26 123.25 526.35 139.31 546.62 156.83 563.16 173.75 579.14 194.46 591.49 217.73 591.44" fill="none" stroke-width="2" stroke="#b36800"></path><path d="M980.74 92.93C994.2 93.28 1008.75 93.95 1018.76 84.95 1029.13 75.63 1032.1 60.87 1031.91 46.93 1031.72 33.2 1027.35 19.74 1017.73 9.94 1008.03 0.05 994.58-4.63 980.74-5.22 966.19-5.84 950.82-3.58 940.44 6.63 930 16.89 926.91 32.31 927.71 46.93 928.47 60.73 934.19 73.98 944.63 83.04 954.43 91.54 967.77 92.6 980.74 92.93" fill="#ff9500" stroke="none"></path><path d="M995.74 83.93C1009.2 84.28 1023.75 84.95 1033.76 75.95 1044.13 66.63 1047.1 51.87 1046.91 37.93 1046.72 24.2 1042.35 10.74 1032.73 0.94 1023.03-8.95 1009.58-13.63 995.74-14.22 981.19-14.84 965.82-12.58 955.44-2.37 945 7.89 941.91 23.31 942.71 37.93 943.47 51.73 949.19 64.98 959.63 74.04 969.43 82.54 982.77 83.6 995.74 83.93" fill="none" stroke-width="2" stroke="#b36800"></path><path d="M218.22 324.18C239.05 324.34 261.6 323.04 276.14 308.13 290.57 293.33 290.17 270.88 290.35 250.21 290.53 229.28 292.15 205.87 277.14 191.29 262.24 176.81 238.92 178.32 218.22 180.13 199.72 181.75 182.64 188.41 168.77 200.76 153.91 214 140.98 230.36 139.57 250.21 138.07 271.29 145.82 292.74 161.21 307.22 176.22 321.34 197.61 324.02 218.22 324.18" fill="rgba(255, 149, 0, 1)" stroke="none"></path><path d="M226.22 305.18C247.05 305.34 269.6 304.04 284.14 289.13 298.57 274.33 298.17 251.88 298.35 231.21 298.53 210.28 300.15 186.87 285.14 172.29 270.24 157.81 246.92 159.32 226.22 161.13 207.72 162.75 190.64 169.41 176.77 181.76 161.91 195 148.98 211.36 147.57 231.21 146.07 252.29 153.82 273.74 169.21 288.22 184.22 302.34 205.61 305.02 226.22 305.18" fill="none" stroke-width="2" stroke="#b36800"></path><path d="M665.28 542.05C685.64 543.41 705.11 532.66 718.85 517.57 732 503.13 736.62 483.53 736.35 464 736.09 444.78 730.45 425.99 717.4 411.88 703.83 397.2 685.27 386.72 665.28 387.14 645.61 387.55 629.01 399.91 615.28 414 601.77 427.86 589.72 444.65 590.35 464 590.97 482.92 605.33 497.18 618.44 510.84 631.94 524.91 645.82 540.75 665.28 542.05" fill="rgba(14, 42, 71, 1)" stroke="none"></path><path d="M682.28 552.05C702.64 553.41 722.11 542.66 735.85 527.57 749 513.13 753.62 493.53 753.35 474 753.09 454.78 747.45 435.99 734.4 421.88 720.83 407.2 702.27 396.72 682.28 397.14 662.61 397.55 646.01 409.91 632.28 424 618.77 437.86 606.72 454.65 607.35 474 607.97 492.92 622.33 507.18 635.44 520.84 648.94 534.91 662.82 550.75 682.28 552.05" fill="none" stroke-width="2" stroke="#0a1d32"></path><path d="M1304.6 321.05C1317.41 321.11 1326.87 309.91 1334.96 299.98 1342.07 291.25 1346.25 280.88 1346.5 269.62 1346.76 258.07 1343.81 246.69 1336.35 237.87 1328.21 228.24 1317.21 220.15 1304.6 220.06 1291.92 219.96 1281.61 228.71 1272.37 237.39 1262.72 246.46 1251.4 256.39 1251.85 269.62 1252.3 282.66 1265.16 290.61 1274.5 299.72 1283.65 308.64 1291.82 321 1304.6 321.05" fill="rgba(14, 42, 71, 1)" stroke="none"></path><path d="M1292.6 304.05C1305.41 304.11 1314.87 292.91 1322.96 282.98 1330.07 274.25 1334.25 263.88 1334.5 252.62 1334.76 241.07 1331.81 229.69 1324.35 220.87 1316.21 211.24 1305.21 203.15 1292.6 203.06 1279.92 202.96 1269.61 211.71 1260.37 220.39 1250.72 229.46 1239.4 239.39 1239.85 252.62 1240.3 265.66 1253.16 273.61 1262.5 282.72 1271.65 291.64 1279.82 304 1292.6 304.05" fill="none" stroke-width="2" stroke="#0a1d32"></path><path d="M685.2 215.38C709.49 215.86 734.71 214.27 753.24 198.57 773.14 181.71 786.8 156.57 785.38 130.53 784.01 105.45 764.01 87.24 746.21 69.52 728.47 51.85 710.19 32.38 685.2 30.79 659.02 29.12 633.67 41.94 615.9 61.23 598.78 79.81 592.56 105.28 593.29 130.53 594 154.97 601.85 179.33 619.81 195.92 637.18 211.96 661.56 214.91 685.2 215.38" fill="rgba(14, 42, 71, 1)" stroke="none"></path><path d="M704.2 233.38C728.49 233.86 753.71 232.27 772.24 216.57 792.14 199.71 805.8 174.57 804.38 148.53 803.01 123.45 783.01 105.24 765.21 87.52 747.47 69.85 729.19 50.38 704.2 48.79 678.02 47.12 652.67 59.94 634.9 79.23 617.78 97.81 611.56 123.28 612.29 148.53 613 172.97 620.85 197.33 638.81 213.92 656.18 229.96 680.56 232.91 704.2 233.38" fill="none" stroke-width="2" stroke="#0a1d32"></path><path d="M1132.82 417.91C1146.74 416.32 1155.14 403.43 1165.12 393.6 1175.24 383.64 1190.35 375.5 1190.33 361.3 1190.31 347.11 1176.05 338.02 1165.02 329.1 1155.53 321.42 1144.99 315.83 1132.82 314.8 1119.33 313.66 1104.86 314.23 1094.66 323.14 1083.95 332.5 1080.03 347.09 1079.59 361.3 1079.13 376.02 1082.13 391.17 1092.22 401.9 1102.58 412.92 1117.8 419.62 1132.82 417.91" fill="#ff9500" stroke="none"></path><path d="M1144.82 423.91C1158.74 422.32 1167.14 409.43 1177.12 399.6 1187.24 389.64 1202.35 381.5 1202.33 367.3 1202.31 353.11 1188.05 344.02 1177.02 335.1 1167.53 327.42 1156.99 321.83 1144.82 320.8 1131.33 319.66 1116.86 320.23 1106.66 329.14 1095.95 338.5 1092.03 353.09 1091.59 367.3 1091.13 382.02 1094.13 397.17 1104.22 407.9 1114.58 418.92 1129.8 425.62 1144.82 423.91" fill="none" stroke-width="2" stroke="#b36800"></path></g><defs><clipPath id="SvgjsClipPath1006"><rect width="1440" height="560" x="0" y="0"></rect></clipPath></defs></svg>